<svg width="24" height="24" viewBox="0 0 24 24" fill="none" xmlns="http://www.w3.org/2000/svg">
    <rect y="7" width="24" height="12" rx="6" fill="#212529" fill-opacity="0.4" />
    <path
        d="M8.97266 14.1055C8.92839 14.7174 8.70182 15.1992 8.29297 15.5508C7.88672 15.9023 7.35026 16.0781 6.68359 16.0781C5.95443 16.0781 5.38021 15.8333 4.96094 15.3438C4.54427 14.8516 4.33594 14.1771 4.33594 13.3203V12.9727C4.33594 12.4258 4.43229 11.944 4.625 11.5273C4.81771 11.1107 5.09245 10.7917 5.44922 10.5703C5.80859 10.3464 6.22526 10.2344 6.69922 10.2344C7.35547 10.2344 7.88411 10.4102 8.28516 10.7617C8.6862 11.1133 8.91797 11.6068 8.98047 12.2422H7.80859C7.77995 11.875 7.67708 11.6094 7.5 11.4453C7.32552 11.2786 7.05859 11.1953 6.69922 11.1953C6.30859 11.1953 6.01562 11.3359 5.82031 11.6172C5.6276 11.8958 5.52865 12.3294 5.52344 12.918V13.3477C5.52344 13.9622 5.61589 14.4115 5.80078 14.6953C5.98828 14.9792 6.28255 15.1211 6.68359 15.1211C7.04557 15.1211 7.3151 15.0391 7.49219 14.875C7.67188 14.7083 7.77474 14.4518 7.80078 14.1055H8.97266ZM10.7695 12.2344C11.069 11.875 11.4453 11.6953 11.8984 11.6953C12.8151 11.6953 13.2799 12.2279 13.293 13.293V16H12.1641V13.3242C12.1641 13.082 12.112 12.9036 12.0078 12.7891C11.9036 12.6719 11.7305 12.6133 11.4883 12.6133C11.1576 12.6133 10.918 12.7409 10.7695 12.9961V16H9.64062V10H10.7695V12.2344ZM15.3359 16H14.2031V11.7734H15.3359V16ZM14.1367 10.6797C14.1367 10.5104 14.1927 10.3711 14.3047 10.2617C14.4193 10.1523 14.5742 10.0977 14.7695 10.0977C14.9622 10.0977 15.1159 10.1523 15.2305 10.2617C15.3451 10.3711 15.4023 10.5104 15.4023 10.6797C15.4023 10.8516 15.3438 10.9922 15.2266 11.1016C15.112 11.2109 14.9596 11.2656 14.7695 11.2656C14.5794 11.2656 14.4258 11.2109 14.3086 11.1016C14.194 10.9922 14.1367 10.8516 14.1367 10.6797ZM20.0742 13.9258C20.0742 14.5768 19.9258 15.099 19.6289 15.4922C19.3346 15.8828 18.9362 16.0781 18.4336 16.0781C18.0065 16.0781 17.6615 15.9297 17.3984 15.6328V17.625H16.2695V11.7734H17.3164L17.3555 12.1875C17.6289 11.8594 17.9857 11.6953 18.4258 11.6953C18.9466 11.6953 19.3516 11.888 19.6406 12.2734C19.9297 12.6589 20.0742 13.1901 20.0742 13.8672V13.9258ZM18.9453 13.8438C18.9453 13.4505 18.875 13.1471 18.7344 12.9336C18.5964 12.7201 18.3945 12.6133 18.1289 12.6133C17.7747 12.6133 17.5312 12.7487 17.3984 13.0195V14.75C17.5365 15.0286 17.7826 15.168 18.1367 15.168C18.6758 15.168 18.9453 14.7266 18.9453 13.8438Z"
        fill="#212529" />
</svg>
