<svg width="100" height="100" viewBox="0 0 100 100" fill="none" xmlns="http://www.w3.org/2000/svg">
<mask id="path-1-inside-1_2518_5053" fill="white">
<rect x="18" y="18" width="64" height="64" rx="5"/>
</mask>
<rect x="18" y="18" width="64" height="64" rx="5" stroke="#212529" stroke-width="14" mask="url(#path-1-inside-1_2518_5053)"/>
<rect opacity="0.4" x="25" y="25" width="50" height="50" fill="#212529"/>
<path fill-rule="evenodd" clip-rule="evenodd" d="M44.4034 36.9638C36.3344 42.9587 35.4476 44.7725 38.9342 48.1434L40.855 50L38.9342 51.8566C35.4476 55.2275 36.3344 57.0413 44.4034 63.0362C46.7002 64.743 49.0742 66 50 66C50.9258 66 53.2998 64.743 55.5966 63.0362C63.6656 57.0413 64.5524 55.2275 61.0658 51.8566L59.145 50L61.0658 48.1434C64.5524 44.7725 63.6656 42.9587 55.5966 36.9638C53.2998 35.257 50.9258 34 50 34C49.0742 34 46.7002 35.257 44.4034 36.9638ZM55.5088 40.4454C58.1339 42.4275 59.8741 44.1875 59.7672 44.7514C59.667 45.2755 58.847 46.2746 57.9441 46.9715L56.3022 48.2387L54.2336 46.6541C51.2201 44.3462 50.133 44.1146 47.7669 45.2768C46.0614 46.1146 45.7868 46.4928 46.3625 47.2115C46.822 47.7843 47.77 47.984 49.0031 47.769C50.3766 47.529 51.3457 47.8003 52.3877 48.7162L53.8477 50L52.3877 51.2589C51.5844 51.9507 50.577 52.5267 50.1484 52.5389C48.9345 52.5722 40.1055 45.5776 40.1055 44.5824C40.1055 43.5066 49.4076 36.5056 50.3797 36.8493C50.7588 36.9837 53.0667 38.6016 55.5088 40.4454ZM46.0607 53.6269C48.8331 55.8157 51.1966 55.792 54.0401 53.5475L56.3022 51.7613L57.9441 53.0285C58.847 53.7254 59.6688 54.7334 59.7709 55.2691C59.9242 56.0755 54.9027 60.4006 50.799 62.9971C49.812 63.6211 40.1055 56.7635 40.1055 55.4426C40.1055 54.6906 42.879 51.92 43.6316 51.92C43.7782 51.92 44.8715 52.688 46.0607 53.6269Z" fill="#212529"/>
</svg>
