<svg width="64" height="64" viewBox="0 0 64 64" fill="none" xmlns="http://www.w3.org/2000/svg">
<path d="M48.2209 13.2209C48.3875 11.0542 47.2209 6.62086 41.2209 6.22086C35.2209 5.82086 21.3875 6.05419 15.2209 6.22086C13.7207 6.22086 9.62086 7.22086 9.22086 13.2209C8.82086 19.2209 9.05419 37.0542 9.22086 45.2209C9.22081 47.5542 10.5207 52.2209 15.7207 52.2209" stroke="#212529" stroke-width="2" stroke-linecap="round"/>
<rect opacity="0.4" x="18" y="15" width="37" height="43" rx="6" fill="#212529"/>
<path fill-rule="evenodd" clip-rule="evenodd" d="M29.5265 32H36.4715C37.3147 32 38 31.3291 38 30.501C38 29.6729 37.3147 29 36.4715 29H29.5265C28.6832 29 28 29.6729 28 30.501C28 31.3291 28.6832 32 29.5265 32ZM29.8243 45H43.1732C44.181 45 45 44.3291 45 43.501C45 42.6729 44.181 42 43.1732 42H29.8243C28.8165 42 28 42.6729 28 43.501C28 44.3291 28.8165 45 29.8243 45Z" fill="#212529"/>
</svg>
