<svg width="24" height="24" viewBox="0 0 24 24" fill="none" xmlns="http://www.w3.org/2000/svg">
    <path
        d="M20.703 12.6041C21.3233 14.2388 21.8226 13.242 22.8622 14.9963C23.3215 16.2721 22.5218 17.0297 22.0819 17.7872C21.781 18.3055 21.0882 19.4027 19.2635 19.1428C18.9836 19.1029 18.1839 18.6245 17.2642 18.6245C16.1846 18.6245 15.4061 19.6286 15.2444 20.0598C15.065 20.5383 15.2249 21.6547 14.5246 22.2128C13.4255 23.09 13.2656 22.9704 11.9461 22.9704C11.3863 23.0103 10.7065 23.09 9.82681 22.5717C8.10742 20.9769 9.48639 20.8174 8.26737 19.382C7.707 18.7222 6.54797 18.3853 5.46835 18.8637C3.86891 19.7807 2.42942 18.9036 1.84908 17.6676C1.3498 16.9101 0.94994 16.4715 1.00937 15.6342C1.15616 13.5661 3.36855 14.159 3.36855 12.0459C3.36855 9.93275 1.64917 10.4112 1.20931 9.09546C0.489568 7.73987 1.80908 6.4556 2.40889 5.547C4.64807 3.63323 5.44779 5.86596 7.28714 5.22803C8.96655 4.59011 8.76662 3.43386 8.96655 2.67633C9.16648 1.59982 10.3466 0.961895 11.9655 1.00177C13.4451 1.0382 14.0653 1.32073 14.4652 1.71943C14.9255 2.2776 15.1244 2.71622 15.1244 3.15479C15.1244 4.19142 16.009 5.07461 17.0243 5.38751C19.1835 5.50713 18.5437 4.66985 20.2631 4.8692C21.3363 4.99362 21.7826 5.86596 22.4224 6.74311C23.542 8.45754 22.8622 9.4543 21.5027 10.2916C20.3031 11.2086 20.5565 12.2181 20.703 12.6041Z"
        fill="#130F26" fill-opacity="0.4" />
    <circle cx="12" cy="12" r="3" fill="#212529" stroke="#212529" />
</svg>
