<svg width="24" height="24" viewBox="0 0 24 24" fill="none" xmlns="http://www.w3.org/2000/svg">
<rect x="1" y="1" width="22" height="22" rx="4" fill="#212529" fill-opacity="0.4"/>
<circle r="1.5" transform="matrix(-1 0 0 1 8.5 8.5)" fill="#212529"/>
<path d="M7.05726 14.4529L5 17L4.89752 17.1537C4.48517 17.7722 4.8679 18.6085 5.60554 18.7007L8 19H14.5H17.6126C17.8692 19 18.1241 18.9586 18.3675 18.8775L18.6796 18.7735C19.1961 18.6013 19.6013 18.1961 19.7735 17.6796C19.9185 17.2445 19.8848 16.7695 19.6796 16.3592L19.0484 15.0969C19.0162 15.0325 18.9772 14.9718 18.9319 14.9157L16.5025 11.9078C16.1171 11.4307 15.3969 11.4097 14.9844 11.8637L11.5643 15.6276C11.2054 16.0227 10.5994 16.0661 10.1877 15.7263L8.47177 14.31C8.04263 13.9558 7.40689 14.02 7.05726 14.4529Z" fill="#212529"/>
</svg>
