<svg width="100" height="100" viewBox="0 0 100 100" fill="none" xmlns="http://www.w3.org/2000/svg">
<rect opacity="0.4" x="23" y="23" width="54" height="54" rx="5" fill="#212529"/>
<path d="M72.4 18H27.6C25.0548 18.0028 22.6146 19.0151 20.8148 20.8148C19.0151 22.6146 18.0028 25.0548 18 27.6V72.4C18.0028 74.9452 19.0151 77.3854 20.8148 79.1852C22.6146 80.9849 25.0548 81.9972 27.6 82H72.4C74.9452 81.9972 77.3854 80.9849 79.1852 79.1852C80.9849 77.3854 81.9972 74.9452 82 72.4V27.6C81.9972 25.0548 80.9849 22.6146 79.1852 20.8148C77.3854 19.0151 74.9452 18.0028 72.4 18ZM66 37.2C60.6906 37.2 56.8594 44.1672 52.8032 51.5422C48.0281 60.2234 43.0906 69.2 34 69.2C33.1513 69.2 32.3374 68.8629 31.7373 68.2627C31.1371 67.6626 30.8 66.8487 30.8 66C30.8 65.1513 31.1371 64.3374 31.7373 63.7373C32.3374 63.1371 33.1513 62.8 34 62.8C39.3094 62.8 43.1406 55.8328 47.1968 48.4578C51.9719 39.7766 56.9094 30.8 66 30.8C66.8487 30.8 67.6626 31.1371 68.2627 31.7373C68.8629 32.3374 69.2 33.1513 69.2 34C69.2 34.8487 68.8629 35.6626 68.2627 36.2627C67.6626 36.8629 66.8487 37.2 66 37.2Z" fill="#212529"/>
</svg>
