<svg width="100" height="100" viewBox="0 0 100 100" fill="none" xmlns="http://www.w3.org/2000/svg">
    <path fill-rule="evenodd" clip-rule="evenodd"
        d="M18.6401 18.6401C18.3318 18.9475 18.0798 21.4045 18.0798 24.1001V28.9999H23.5398H28.9999V36.1399V43.28H23.5398H18.0798V50V56.72H23.5398H28.9999V63.8601V71.0001H23.4995H18L18.2495 76.2502L18.4998 81.5002L23.7498 81.7505L28.9999 82V76.5005V71.0001H36.1399H43.28V76.4602V81.9202H50H56.72V76.4602V71.0001H63.8601H71.0001V76.5005V82L76.2502 81.7505L81.5002 81.5002L81.7505 76.2502L82 71.0001H76.5005H71.0001V63.8601V56.72H76.4602H81.9202V50V43.28H76.4602H71.0001V36.1399V28.9999H76.5005H82L81.7505 23.7498L81.5002 18.4998L76.2502 18.2495L71.0001 18V23.4995V28.9999H63.8601H56.72V23.5398V18.0798H50H43.28V23.5398V28.9999H36.1399H28.9999V23.5398V18.0798H24.1001C21.4045 18.0798 18.9475 18.3318 18.6401 18.6401ZM56.72 36.1399V43.28H63.8601H71.0001V50V56.72H63.8601H56.72V63.8601V71.0001H50H43.28V63.8601V56.72H36.1399H28.9999V50V43.28H36.1399H43.28V36.1399V28.9999H50H56.72V36.1399ZM43.28 50V56.72H50H56.72V50V43.28H50H43.28V50Z"
        fill="#212529" />
    <path opacity="0.4" fill-rule="evenodd" clip-rule="evenodd"
        d="M56.72 36.1399V43.28H63.8601H71.0001V50V56.72H63.8601H56.72V63.8601V71.0001H50H43.28V63.8601V56.72H36.1399H28.9999V50V43.28H36.1399H43.28V36.1399V28.9999H50H56.72V36.1399ZM43.28 50V56.72H50H56.72V50V43.28H50H43.28V50Z"
        fill="#212529" />
</svg>
