<svg width="100" height="100" viewBox="0 0 100 100" fill="none" xmlns="http://www.w3.org/2000/svg">
<rect opacity="0.4" x="31" y="45" width="38" height="31" fill="#212529"/>
<rect x="39" y="58" width="5" height="5" rx="2.5" fill="#212529"/>
<rect x="48" y="58" width="5" height="5" rx="2.5" fill="#212529"/>
<rect x="57" y="58" width="5" height="5" rx="2.5" fill="#212529"/>
<path fill-rule="evenodd" clip-rule="evenodd" d="M43.9464 19.0707C37.2475 21.1289 31.8057 28.7964 31.8057 36.1769C31.8057 38.2868 31.4677 39.0188 30.3243 39.3814C29.5101 39.64 28.1991 40.5431 27.4111 41.3886C26.0681 42.8299 25.9807 44.0149 26.0026 60.4496C26.0266 78.8224 26.1198 79.389 29.3906 81.1318C31.4583 82.233 67.249 82.3124 70.1163 81.2221C73.9115 79.7794 73.9988 79.314 74.0236 60.4496C74.0455 44.0149 73.9581 42.8299 72.6151 41.3886C71.8271 40.5431 70.5161 39.64 69.7019 39.3814C68.5585 39.0188 68.2205 38.2868 68.2205 36.1769C68.2205 28.6026 62.7823 21.1106 55.7747 19.0292C51.115 17.6454 48.5565 17.6549 43.9464 19.0707ZM56.6027 26.0842C59.7162 28.1831 61.5391 31.3272 62.1269 35.6132L62.5923 39.0093H50.0131H37.4339L37.8993 35.6132C38.4871 31.3272 40.31 28.1831 43.4235 26.0842C46.8246 23.7922 53.2016 23.7922 56.6027 26.0842ZM68.2205 60.4941V75.4242H50.0131H31.8057V60.4941V45.564H50.0131H68.2205V60.4941Z" fill="#212529"/>
</svg>
