<svg width="24" height="24" viewBox="0 0 24 24" fill="none" xmlns="http://www.w3.org/2000/svg">
    <rect x="4" y="2" width="16" height="16" rx="3" fill="#212529" fill-opacity="0.4" />
    <circle r="1.09091" transform="matrix(-1 0 0 1 9.45453 7.45455)" fill="#130F26" />
    <path
        d="M8.23209 11.9984L6.9091 13.6364C6.57496 14.1376 6.88509 14.8152 7.48281 14.8899L9.09091 15.0909H13.8182H16.0819C16.2685 15.0909 16.4539 15.0608 16.6309 15.0018L16.8579 14.9262C17.2335 14.801 17.5282 14.5062 17.6534 14.1306C17.7589 13.8142 17.7344 13.4687 17.5852 13.1704L17.1355 12.2711C17.1059 12.2117 17.0699 12.1558 17.0282 12.1042L15.4745 10.1806C15.0891 9.70341 14.369 9.68247 13.9565 10.1364L11.8581 12.4458C11.4991 12.8409 10.8931 12.8843 10.4814 12.5445L9.6466 11.8555C9.21746 11.5013 8.58172 11.5655 8.23209 11.9984Z"
        fill="#212529" />
    <path d="M7 20L6 21L7 22" stroke="#212529" stroke-width="0.5" stroke-linecap="round" />
    <circle cx="10.5" cy="21" r="0.5" fill="#212529" />
    <circle cx="12.5" cy="21" r="0.5" fill="#212529" />
    <circle cx="14.5" cy="21" r="0.5" fill="#212529" />
    <path d="M18 20L19 21L18 22" stroke="#212529" stroke-width="0.5" stroke-linecap="round" />
</svg>
