<?xml version="1.0" encoding="iso-8859-1"?>
<!-- Generator: Adobe Illustrator 19.0.0, SVG Export Plug-In . SVG Version: 6.00 Build 0)  -->
<svg version="1.1" id="Layer_1" xmlns="http://www.w3.org/2000/svg" xmlns:xlink="http://www.w3.org/1999/xlink" x="0px" y="0px"
	 viewBox="-452 249 55 64" style="enable-background:new -452 249 55 64;" xml:space="preserve" fill="#ffffff">
<g id="Iconly_x2F_Bulk_x2F_Paper">
	<g id="Paper">
		<path id="Fill_1" d="M-411.833,251.188c-0.945-0.983-2.595-0.307-2.595,1.056v8.334c0,3.496,2.879,6.372,6.375,6.372
			c2.203,0.025,5.262,0.032,7.86,0.025c1.331-0.003,2.007-1.593,1.084-2.554C-402.444,260.954-408.414,254.74-411.833,251.188"/>
		<path d="M-399.307,271.56c-1.336,0.01-2.938,0.025-3.915,0.025c-1.427,0-3.317-0.032-5.67-0.032
			c-5.739,0-10.458-4.75-10.458-10.543v-10.164c0-0.8-0.638-1.451-1.43-1.451h-16.717c-7.802,0-14.107,6.403-14.107,14.251V297.7
			c0,8.233,6.606,14.905,14.758,14.905h24.894c7.773,0,14.076-6.362,14.076-14.216v-25.382
			C-397.877,272.204-398.512,271.556-399.307,271.56z M-434.305,274.359h10.698c1.299,0,2.355,1.056,2.355,2.355
			c0,1.299-1.056,2.351-2.355,2.351h-10.698c-1.299,0-2.351-1.052-2.351-2.351C-436.656,275.414-435.604,274.359-434.305,274.359z
			 M-417.099,294.849h-17.206c-1.299,0-2.351-1.052-2.351-2.351c0-1.299,1.052-2.354,2.351-2.354h17.206
			c1.299,0,2.355,1.056,2.355,2.354C-414.744,293.796-415.8,294.849-417.099,294.849z"/>
	</g>
</g>
</svg>
