<svg width="24" height="24" viewBox="0 0 24 24" fill="none" xmlns="http://www.w3.org/2000/svg">
    <path
        d="M4.41715 9.19377L5.1103 10.6067C5.16137 10.7091 5.25883 10.7802 5.37124 10.796L6.92818 11.026C7.0191 11.0389 7.10162 11.0876 7.15736 11.1618C7.21248 11.2351 7.23614 11.328 7.22275 11.4193C7.21185 11.4952 7.17667 11.5653 7.1228 11.619L5.99464 12.7283C5.91212 12.8057 5.87476 12.9204 5.89468 13.0326L6.17244 14.5921C6.20202 14.7804 6.07903 14.958 5.89468 14.9937C5.81871 15.006 5.74086 14.993 5.67235 14.9577L4.28357 14.2237C4.1805 14.1709 4.05874 14.1709 3.95567 14.2237L2.56689 14.9577C2.39625 15.0496 2.18481 14.987 2.08984 14.8164C2.05465 14.7485 2.0422 14.6711 2.05372 14.5956L2.33148 13.0357C2.35141 12.9239 2.31373 12.8086 2.23152 12.7312L1.10336 11.6225C0.969156 11.491 0.965108 11.2746 1.09433 11.1384C1.09714 11.1356 1.10025 11.1324 1.10336 11.1293C1.15692 11.074 1.2273 11.0389 1.30327 11.0298L2.86021 10.7994C2.97231 10.7833 3.06978 10.7129 3.12116 10.6099L3.78939 9.19377C3.84887 9.07245 3.97218 8.99694 4.10607 9.0001H4.1478C4.26395 9.01431 4.36515 9.0873 4.41715 9.19377Z"
        fill="#212529" />
    <path opacity="0.4"
        d="M12.3039 9.19377L12.9971 10.6067C13.0481 10.7091 13.1456 10.7802 13.258 10.796L14.815 11.026C14.9059 11.0389 14.9884 11.0876 15.0441 11.1618C15.0993 11.2351 15.1229 11.328 15.1095 11.4193C15.0986 11.4952 15.0634 11.5653 15.0096 11.619L13.8814 12.7283C13.7989 12.8057 13.7615 12.9204 13.7815 13.0326L14.0592 14.5921C14.0888 14.7804 13.9658 14.958 13.7815 14.9937C13.7055 15.006 13.6276 14.993 13.5591 14.9577L12.1703 14.2237C12.0673 14.1709 11.9455 14.1709 11.8425 14.2237L10.4537 14.9577C10.283 15.0496 10.0716 14.987 9.97662 14.8164C9.94143 14.7485 9.92898 14.6711 9.9405 14.5956L10.2183 13.0357C10.2382 12.9239 10.2005 12.8086 10.1183 12.7312L8.99014 11.6225C8.85594 11.491 8.85189 11.2746 8.98111 11.1384C8.98392 11.1356 8.98703 11.1324 8.99014 11.1293C9.0437 11.074 9.11408 11.0389 9.19005 11.0298L10.747 10.7994C10.8591 10.7833 10.9566 10.7129 11.0079 10.6099L11.6762 9.19377C11.7356 9.07245 11.859 8.99694 11.9929 9.0001H12.0346C12.1507 9.01431 12.2519 9.0873 12.3039 9.19377Z"
        fill="#212529" />
    <path
        d="M11.9975 14.1844C11.9372 14.1862 11.8784 14.2027 11.8256 14.2321L10.4436 14.9644C10.2745 15.0462 10.0722 14.9827 9.97735 14.8187C9.94222 14.7517 9.92948 14.6749 9.94129 14.5996L10.2173 13.0431C10.236 12.93 10.1987 12.8149 10.1175 12.7353L8.98887 11.6269C8.8549 11.4938 8.85241 11.2754 8.98359 11.1392C8.98545 11.1373 8.98701 11.1357 8.98887 11.1342C9.04234 11.0804 9.11134 11.045 9.18564 11.034L10.7439 10.8014C10.8567 10.7868 10.9546 10.7154 11.0044 10.6117L11.6817 9.17783C11.746 9.06215 11.8694 8.99325 12 9.00052C11.9975 9.09439 11.9975 14.1205 11.9975 14.1844Z"
        fill="#212529" />
    <path opacity="0.4"
        d="M20.1907 9.19377L20.8839 10.6067C20.935 10.7091 21.0324 10.7802 21.1448 10.796L22.7018 11.026C22.7927 11.0389 22.8752 11.0876 22.931 11.1618C22.9861 11.2351 23.0097 11.328 22.9963 11.4193C22.9854 11.4952 22.9503 11.5653 22.8964 11.619L21.7682 12.7283C21.6857 12.8057 21.6483 12.9204 21.6683 13.0326L21.946 14.5921C21.9756 14.7804 21.8526 14.958 21.6683 14.9937C21.5923 15.006 21.5144 14.993 21.4459 14.9577L20.0572 14.2237C19.9541 14.1709 19.8323 14.1709 19.7293 14.2237L18.3405 14.9577C18.1698 15.0496 17.9584 14.987 17.8634 14.8164C17.8282 14.7485 17.8158 14.6711 17.8273 14.5956L18.1051 13.0357C18.125 12.9239 18.0873 12.8086 18.0051 12.7312L16.877 11.6225C16.7427 11.491 16.7387 11.2746 16.8679 11.1384C16.8707 11.1356 16.8738 11.1324 16.877 11.1293C16.9305 11.074 17.0009 11.0389 17.0769 11.0298L18.6338 10.7994C18.7459 10.7833 18.8434 10.7129 18.8947 10.6099L19.563 9.19377C19.6225 9.07245 19.7458 8.99694 19.8797 9.0001H19.9214C20.0375 9.01431 20.1387 9.0873 20.1907 9.19377Z"
        fill="#212529" />
</svg>
