<svg width="24" height="24" viewBox="0 0 24 24" fill="none" xmlns="http://www.w3.org/2000/svg">
    <path d="M3 6.98195L11.2286 3L19.4571 6.98195L11.2286 11.5846L3 6.98195Z" fill="#C4C4C4"
        fill-opacity="0.5" />
    <path d="M11.2285 11.5783L19.4571 6.98195V15.6664L11.2285 19.9234V11.5783Z" fill="#130F26"
        fill-opacity="0.4" />
    <path d="M11.2285 11.539L2.99994 6.98195V15.5667L11.2285 19.9233V11.539Z" fill="#130F26"
        fill-opacity="0.6" />
    <path
        d="M3 7.25L3.97971 7.7535M3 7.25L4.25467 6.60519M3 7.25V8.47518M11.2696 11.5V12.9549M11.2696 11.5L12.3128 10.9639M11.2696 11.5L10.2265 10.9639M19.5393 7.25V7.97744M19.5393 7.25L18.5596 7.7535M19.5393 7.25L18.5596 6.7465M11.2696 20V18.71M11.2696 20L12.7714 19.2282M11.2696 20L10.2 19.4256M18.5596 16.2535L19.5393 15.75V14.6634M12.3128 3.53609L11.2696 3L10.2265 3.5361M3 14.6634V15.75L3.97971 16.2535"
        stroke="#212529" stroke-linecap="round" />
    <path
        d="M21 10.4662L21.1959 10.5067L21.2 10.4867V10.4662H21ZM15.7158 13.3112C15.6377 13.3893 15.6377 13.516 15.7158 13.5941L16.9885 14.8669C17.0667 14.945 17.1933 14.945 17.2714 14.8669C17.3495 14.7888 17.3495 14.6621 17.2714 14.584L16.14 13.4527L17.2714 12.3213C17.3495 12.2432 17.3495 12.1165 17.2714 12.0384C17.1933 11.9603 17.0667 11.9603 16.9885 12.0384L15.7158 13.3112ZM19.482 8.64587L19.2835 8.62105L19.2339 9.01796L19.4324 9.04278L19.482 8.64587ZM20.8042 10.4257C20.5985 11.421 19.3754 13.2527 15.8572 13.2527V13.6527C19.539 13.6527 20.9468 11.7122 21.1959 10.5067L20.8042 10.4257ZM19.4324 9.04278C19.9223 9.10406 20.2574 9.24959 20.4708 9.46948C20.6811 9.68621 20.8 10.003 20.8 10.4662H21.2C21.2 9.93394 21.0618 9.50408 20.7578 9.1909C20.457 8.88088 20.0206 8.71323 19.482 8.64587L19.4324 9.04278Z"
        fill="#212529" />
</svg>
