<svg width="24" height="24" viewBox="0 0 24 24" fill="none" xmlns="http://www.w3.org/2000/svg">
    <path
        d="M4 18L4 5.99987C4 5.99987 4.224 5.99987 4.5 5.99987C4.776 5.99987 4.5 5.99987 5 5.99987L5 18C4.5 18 4.776 17.9999 4.5 17.9999C4.224 17.9999 4.5 18 4 18Z"
        fill="#918F98" />
    <mask id="mask0" mask-type="alpha" maskUnits="userSpaceOnUse" x="1" y="1" width="7" height="5">
        <path fill-rule="evenodd" clip-rule="evenodd" d="M8 6L1 6L1 1L8 1V6Z" fill="white" />
    </mask>
    <g mask="url(#mask0)">
        <path
            d="M0.999818 5.60263C0.999818 5.52845 1.02355 5.45534 1.06981 5.3907L4.11343 1.18597C4.19742 1.07047 4.34287 1 4.49989 1C4.65691 1 4.80237 1.07047 4.88636 1.18597L7.92998 5.3907C8.01823 5.51309 8.0237 5.6678 7.94276 5.79443C7.86242 5.92159 7.70966 6 7.54352 6L1.45627 6C1.29012 6 1.13736 5.92159 1.05703 5.79443C1.01868 5.73456 0.999818 5.66833 0.999818 5.60263Z"
            fill="#212529" />
    </g>
    <mask id="mask1" mask-type="alpha" maskUnits="userSpaceOnUse" x="1" y="18" width="7" height="5">
        <path fill-rule="evenodd" clip-rule="evenodd" d="M8 18H1L1 23H8V18Z" fill="white" />
    </mask>
    <g mask="url(#mask1)">
        <path
            d="M0.999818 18.3974C0.999818 18.4715 1.02355 18.5447 1.06981 18.6093L4.11343 22.814C4.19742 22.9295 4.34287 23 4.49989 23C4.65691 23 4.80237 22.9295 4.88636 22.814L7.92998 18.6093C8.01823 18.4869 8.0237 18.3322 7.94276 18.2056C7.86242 18.0784 7.70966 18 7.54352 18H1.45627C1.29012 18 1.13736 18.0784 1.05703 18.2056C1.01868 18.2654 0.999818 18.3317 0.999818 18.3974Z"
            fill="#212529" />
    </g>
    <rect x="11" y="4" width="12" height="1" rx="0.5" fill="#212529" />
    <rect x="11" y="8" width="8" height="1" rx="0.5" fill="#212529" opacity="0.4"/>
    <rect x="11" y="12" width="12" height="1" rx="0.5" fill="#212529" />
    <rect x="11" y="16" width="8" height="1" rx="0.5" fill="#212529" opacity="0.4"/>
    <rect x="11" y="20" width="12" height="1" rx="0.5" fill="#212529" />
</svg>
