<svg width="24" height="24" viewBox="0 0 24 24" fill="none" xmlns="http://www.w3.org/2000/svg">
    <path opacity="0.4"
        d="M3.65151 12.3127L10.9262 7.6833C11.5814 7.26639 12.4186 7.26639 13.0738 7.6833L20.3485 12.3127C21.5835 13.0986 21.5835 14.9014 20.3485 15.6873L13.0738 20.3167C12.4186 20.7336 11.5814 20.7336 10.9262 20.3167L3.65151 15.6873C2.41651 14.9014 2.41651 13.0986 3.65151 12.3127Z"
        fill="#212529" />
    <path
        opacity="0.4"
        d="M3.65151 9.31267L10.9262 4.6833C11.5814 4.26639 12.4186 4.26639 13.0738 4.6833L20.3485 9.31268C21.5835 10.0986 21.5835 11.9014 20.3485 12.6873L13.0738 17.3167C12.4186 17.7336 11.5814 17.7336 10.9262 17.3167L3.65151 12.6873C2.41651 11.9014 2.41651 10.0986 3.65151 9.31267Z"
        fill="#212529" />
</svg>
