<svg width="24" height="24" viewBox="0 0 24 24" fill="none" xmlns="http://www.w3.org/2000/svg">
    <rect x="1" y="6" width="22" height="13" rx="2" fill="#212529" fill-opacity="0.4" />
    <path
        d="M11.6646 13.0073C11.6646 13.6343 11.5591 14.1821 11.3481 14.6509C11.1372 15.1167 10.8384 15.4727 10.4517 15.7188C10.0649 15.9648 9.61377 16.0879 9.09814 16.0879C8.59424 16.0879 8.14746 15.9648 7.75781 15.7188C7.36816 15.4697 7.06494 15.1167 6.84814 14.6597C6.63428 14.1997 6.52441 13.668 6.51855 13.0645V12.603C6.51855 11.9878 6.62549 11.4443 6.83936 10.9727C7.05322 10.501 7.35498 10.1406 7.74463 9.8916C8.13721 9.63965 8.58545 9.51367 9.08936 9.51367C9.60205 9.51367 10.0532 9.63818 10.4429 9.88721C10.8354 10.1333 11.1372 10.4922 11.3481 10.9639C11.5591 11.4326 11.6646 11.979 11.6646 12.603V13.0073ZM10.8252 12.5942C10.8252 11.8354 10.6729 11.2539 10.3682 10.8496C10.0635 10.4424 9.63721 10.2388 9.08936 10.2388C8.55615 10.2388 8.13574 10.4424 7.82812 10.8496C7.52344 11.2539 7.3667 11.8164 7.35791 12.5371V13.0073C7.35791 13.7427 7.51172 14.3213 7.81934 14.7432C8.12988 15.1621 8.55615 15.3716 9.09814 15.3716C9.64307 15.3716 10.0649 15.1738 10.3638 14.7783C10.6626 14.3799 10.8164 13.8101 10.8252 13.0688V12.5942ZM14.5562 13.0249L13.7739 13.8379V16H12.9302V9.60156H13.7739V12.7656L16.6172 9.60156H17.6367L15.1187 12.4272L17.8345 16H16.8237L14.5562 13.0249Z"
        fill="#212529" />
</svg>
