<svg width="24" height="24" viewBox="0 0 24 24" fill="none" xmlns="http://www.w3.org/2000/svg">
    <path d="M19 2H5H2V5V19V22H5H19H22V19V5V2H19Z" fill="#212529" fill-opacity="0.4"
        stroke="#212529" stroke-width="0.5" stroke-linecap="round" stroke-dasharray="4 4" />
    <rect x="21" y="1" width="2" height="2" fill="#212529" stroke="#212529" stroke-width="0.5" />
    <rect x="21" y="21" width="2" height="2" stroke="#212529" stroke-width="0.5" />
    <rect x="1" y="21" width="2" height="2" fill="#212529" stroke="#212529" stroke-width="0.5" />
    <rect x="1" y="1" width="2" height="2" fill="#212529" stroke="#212529" stroke-width="0.5" />
    <path
        d="M5 5H19V7.82561C19 8.22323 18.4358 8.30052 18.3289 7.91757L18.2967 7.8024C18.1874 7.41085 17.9176 7.08379 17.554 6.90199V6.90199C17.3541 6.80204 17.1336 6.75 16.9101 6.75L13.7125 6.75C13.4916 6.75 13.3125 6.92909 13.3125 7.15V17.3664C13.3125 17.6246 13.4299 17.8689 13.6316 18.0303V18.0303C13.7099 18.0929 13.7987 18.1412 13.8939 18.173L14.8887 18.5046C14.9925 18.5392 15.0625 18.6363 15.0625 18.7458V18.7458C15.0625 18.8862 14.9487 19 14.8083 19H9.19175C9.05133 19 8.9375 18.8862 8.9375 18.7458V18.7458C8.9375 18.6363 9.00753 18.5392 9.11135 18.5046L10.0369 18.196C10.177 18.1493 10.3044 18.0706 10.4088 17.9662V17.9662C10.5873 17.7877 10.6875 17.5457 10.6875 17.2934V7.15C10.6875 6.92909 10.5084 6.75 10.2875 6.75L7.09164 6.75C6.86697 6.75 6.64538 6.80231 6.44442 6.90279V6.90279C6.08159 7.08421 5.81155 7.40958 5.7001 7.79964L5.66893 7.90873C5.56029 8.28897 5 8.2105 5 7.81504V5Z"
        stroke="#212529" stroke-width="0.8" />
</svg>
