<svg width="24" height="24" viewBox="0 0 24 24" fill="none" xmlns="http://www.w3.org/2000/svg">
    <path
        d="M4 4H20V7.22927C20 7.68369 19.3552 7.77203 19.233 7.33436L19.1963 7.20274C19.0713 6.75526 18.763 6.38148 18.3474 6.1737C18.1189 6.05947 17.867 6 17.6116 6L13.9 6C13.6791 6 13.5 6.17909 13.5 6.4V18.133C13.5 18.4282 13.6342 18.7073 13.8647 18.8917C13.9542 18.9633 14.0557 19.0186 14.1644 19.0548L15.3013 19.4338C15.42 19.4733 15.5 19.5844 15.5 19.7094C15.5 19.8699 15.3699 20 15.2094 20H8.79057C8.63009 20 8.5 19.8699 8.5 19.7094C8.5 19.5844 8.58003 19.4733 8.69868 19.4338L9.75648 19.0812C9.91662 19.0278 10.0621 18.9379 10.1815 18.8185C10.3854 18.6146 10.5 18.338 10.5 18.0496V6.4C10.5 6.17909 10.3209 6 10.1 6L6.39045 6C6.13368 6 5.88043 6.05978 5.65077 6.17461C5.2361 6.38195 4.92748 6.75381 4.80012 7.19959L4.7645 7.32427C4.64033 7.75883 4 7.66915 4 7.21719V4Z"
        fill="#212529" />
    <mask id="mask0" mask-type="alpha" maskUnits="userSpaceOnUse" x="4" y="4" width="16"
        height="16">
        <path
            d="M4 4H20V7.22927C20 7.68369 19.3552 7.77203 19.233 7.33436L19.1963 7.20274C19.0713 6.75526 18.763 6.38148 18.3474 6.1737C18.1189 6.05947 17.867 6 17.6116 6L13.9 6C13.6791 6 13.5 6.17909 13.5 6.4V18.133C13.5 18.4282 13.6342 18.7073 13.8647 18.8917C13.9542 18.9633 14.0557 19.0186 14.1644 19.0548L15.3013 19.4338C15.42 19.4733 15.5 19.5844 15.5 19.7094C15.5 19.8699 15.3699 20 15.2094 20H8.79057C8.63009 20 8.5 19.8699 8.5 19.7094C8.5 19.5844 8.58003 19.4733 8.69868 19.4338L9.75648 19.0812C9.91662 19.0278 10.0621 18.9379 10.1815 18.8185C10.3854 18.6146 10.5 18.338 10.5 18.0496V6.4C10.5 6.17909 10.3209 6 10.1 6L6.39045 6C6.13368 6 5.88043 6.05978 5.65077 6.17461C5.2361 6.38195 4.92748 6.75381 4.80012 7.19959L4.7645 7.32427C4.64033 7.75883 4 7.66915 4 7.21719V4Z"
            fill="#212529" />
    </mask>
    <g mask="url(#mask0)">
        <rect x="20.3419" y="5" width="9.59372" height="20.1781"
            transform="rotate(49.4908 20.3419 5)" fill="#918F98" />
    </g>
</svg>
