<svg width="24" height="24" viewBox="0 0 24 24" fill="none" xmlns="http://www.w3.org/2000/svg">
    <circle cx="12.5" cy="12.5" r="10" fill="#212529" fill-opacity="0.4" stroke="#212529" />
    <path
        d="M17.5 12.5C17.5 15.3354 16.8969 17.8775 15.9462 19.6926C14.983 21.5314 13.7395 22.5 12.5 22.5C11.2605 22.5 10.017 21.5314 9.05383 19.6926C8.10307 17.8775 7.5 15.3354 7.5 12.5C7.5 9.66462 8.10307 7.12247 9.05383 5.30738C10.017 3.46862 11.2605 2.5 12.5 2.5C13.7395 2.5 14.983 3.46862 15.9462 5.30738C16.8969 7.12247 17.5 9.66462 17.5 12.5Z"
        stroke="#212529" />
    <rect x="2" y="12" width="21" height="1" fill="#212529" />
    <rect x="12" y="23" width="21" height="1" transform="rotate(-90 12 23)" fill="#212529" />
    <rect x="4" y="17" width="17" height="1" fill="#212529" />
    <rect x="4" y="7" width="17" height="1" fill="#212529" />
</svg>
