<svg width="24" height="24" viewBox="0 0 24 24" fill="none" xmlns="http://www.w3.org/2000/svg">
<path d="M1.20937 7.79428C1.36339 5.89498 2.88941 4.41892 4.79088 4.29464C6.96304 4.15267 9.80836 4 12 4C14.1916 4 17.037 4.15267 19.2091 4.29464C21.1106 4.41892 22.6366 5.89498 22.7906 7.79428C22.9019 9.16658 23 10.735 23 12C23 13.265 22.9019 14.8334 22.7906 16.2057C22.6366 18.105 21.1106 19.5811 19.2091 19.7054C17.037 19.8473 14.1916 20 12 20C9.80836 20 6.96304 19.8473 4.79088 19.7054C2.88941 19.5811 1.36339 18.105 1.20937 16.2057C1.09809 14.8334 1 13.265 1 12C1 10.735 1.09809 9.16658 1.20937 7.79428Z" fill="#212529" opacity="0.4"/>
<path d="M9 8.5L15 12L9 15.5V8.5Z" fill="#212529"/>
</svg>
